<svg width="45" height="39" viewBox="0 0 45 39" fill="none" xmlns="http://www.w3.org/2000/svg">
<path d="M3.87842 17.4399H42.6284C43.1423 17.4399 43.6351 17.6441 43.9984 18.0074C44.3618 18.3708 44.5659 18.8636 44.5659 19.3774C44.5659 19.8913 44.3618 20.3841 43.9984 20.7475C43.6351 21.1108 43.1423 21.3149 42.6284 21.3149H3.87842C3.36456 21.3149 2.87175 21.1108 2.5084 20.7475C2.14505 20.3841 1.94092 19.8913 1.94092 19.3774C1.94092 18.8636 2.14505 18.3708 2.5084 18.0074C2.87175 17.6441 3.36456 17.4399 3.87842 17.4399Z" fill="black"/>
<path d="M4.68059 19.3774L20.7502 35.4432C21.114 35.807 21.3184 36.3004 21.3184 36.8149C21.3184 37.3295 21.114 37.8229 20.7502 38.1867C20.3864 38.5505 19.893 38.7549 19.3785 38.7549C18.864 38.7549 18.3705 38.5505 18.0067 38.1867L0.569213 20.7492C0.388781 20.5692 0.245628 20.3554 0.147953 20.12C0.0502776 19.8846 0 19.6323 0 19.3774C0 19.1226 0.0502776 18.8703 0.147953 18.6349C0.245628 18.3995 0.388781 18.1857 0.569213 18.0057L18.0067 0.568197C18.3705 0.204386 18.864 0 19.3785 0C19.893 0 20.3864 0.204386 20.7502 0.568197C21.114 0.932008 21.3184 1.42544 21.3184 1.93995C21.3184 2.45445 21.114 2.94789 20.7502 3.3117L4.68059 19.3774Z" fill="black"/>
</svg>
