<svg width="29" height="29" viewBox="0 0 29 29" fill="none" xmlns="http://www.w3.org/2000/svg">
<path d="M8.08264 14.0833H16.0826M8.08264 8.75H12.0826M9.41597 24.75C10.816 25.91 12.5026 26.6487 14.4346 26.7753C15.956 26.8753 17.5453 26.8753 19.0653 26.7753C19.6085 26.7378 20.1426 26.6173 20.6493 26.418C21.196 26.1953 21.468 26.0847 21.608 26.102C21.7466 26.118 21.948 26.2647 22.3506 26.558C23.0613 27.0753 23.956 27.446 25.284 27.4153C25.9546 27.3993 26.2906 27.39 26.44 27.138C26.5906 26.8847 26.404 26.5353 26.0293 25.8353C25.5093 24.8647 25.1813 23.754 25.68 22.8633C26.5373 21.5913 27.2666 20.086 27.3733 18.4593C27.4306 17.586 27.4306 16.6807 27.3733 15.806C27.3038 14.7505 27.0474 13.7158 26.616 12.75" stroke="#054A91" stroke-width="1.5" stroke-linecap="round" stroke-linejoin="round"/>
<path d="M14.5427 21.3993C19.284 21.0873 23.06 17.2927 23.3693 12.5287C23.4307 11.5967 23.4307 10.6313 23.3693 9.69933C23.06 4.93667 19.284 1.142 14.5427 0.83C12.9253 0.723333 11.236 0.723333 9.62267 0.83C4.88133 1.142 1.10533 4.93667 0.796 9.69933C0.734667 10.6327 0.734667 11.5967 0.796 12.5287C0.908 14.2647 1.68267 15.87 2.59467 17.2273C3.124 18.1767 2.77467 19.3607 2.22267 20.3967C1.82533 21.1433 1.62667 21.5167 1.78667 21.786C1.94667 22.0553 2.30267 22.0647 3.016 22.0807C4.42533 22.1153 5.376 21.7193 6.13067 21.1673C6.55867 20.8553 6.77333 20.6993 6.92133 20.6807C7.068 20.6633 7.35867 20.7807 7.93867 21.018C8.46133 21.2313 9.06667 21.362 9.62267 21.3993C11.236 21.506 12.9253 21.506 14.5427 21.3993Z" stroke="#054A91" stroke-width="1.5" stroke-linejoin="round"/>
</svg>
