<svg width="28" height="31" viewBox="0 0 28 31" fill="none" xmlns="http://www.w3.org/2000/svg">
<path d="M1 7.33333H26.3333M10.5 13.6667V23.1667M16.8333 13.6667V23.1667M2.58333 7.33333L4.16667 26.3333C4.16667 27.1732 4.5003 27.9786 5.09416 28.5725C5.68803 29.1664 6.49348 29.5 7.33333 29.5H20C20.8399 29.5 21.6453 29.1664 22.2392 28.5725C22.833 27.9786 23.1667 27.1732 23.1667 26.3333L24.75 7.33333M8.91667 7.33333V2.58333C8.91667 2.16341 9.08348 1.76068 9.38041 1.46375C9.67735 1.16681 10.0801 1 10.5 1H16.8333C17.2533 1 17.656 1.16681 17.9529 1.46375C18.2499 1.76068 18.4167 2.16341 18.4167 2.58333V7.33333" stroke="#860016" stroke-width="2" stroke-linecap="round" stroke-linejoin="round"/>
</svg>
