<svg width="27" height="30" viewBox="0 0 27 30" fill="none" xmlns="http://www.w3.org/2000/svg">
<path d="M0 4.625L1.97333 2.69792L16.2029 16.9583L26.5937 27.3183L24.6358 29.2917L20.0108 24.6667H1.92708V20.0417C1.92708 17.1742 5.95083 15.2933 9.77417 14.43L0 4.625ZM26.5937 20.0417V23.4025L23.6646 20.4733V20.0417C23.6646 19.6408 22.8937 19.0396 21.6604 18.5L17.3437 14.1525C21.5217 14.8463 26.5937 16.8196 26.5937 20.0417ZM4.85625 20.0417V21.7375H17.0817L12.2871 16.9583C8.38667 17.4208 4.85625 19.1937 4.85625 20.0417ZM14.2604 0C15.8959 0 17.4644 0.6497 18.6209 1.80617C19.7774 2.96265 20.4271 4.53116 20.4271 6.16667C20.4271 9.17292 18.2687 11.6858 15.4167 12.2254L8.20167 5.01042C8.47186 3.60127 9.22449 2.33027 10.3302 1.41588C11.4359 0.501495 12.8256 0.000847784 14.2604 0ZM14.2604 3.08333C13.4427 3.08333 12.6584 3.40818 12.0802 3.98642C11.5019 4.56466 11.1771 5.34892 11.1771 6.16667C11.1771 6.98442 11.5019 7.76867 12.0802 8.34691C12.6584 8.92515 13.4427 9.25 14.2604 9.25C15.0782 9.25 15.8624 8.92515 16.4407 8.34691C17.0189 7.76867 17.3437 6.98442 17.3437 6.16667C17.3437 5.34892 17.0189 4.56466 16.4407 3.98642C15.8624 3.40818 15.0782 3.08333 14.2604 3.08333Z" fill="#747474"/>
</svg>
