<svg width="22" height="25" viewBox="0 0 22 25" fill="none" xmlns="http://www.w3.org/2000/svg">
<path d="M1.25 23.75V21.25C1.25 19.9239 1.77678 18.6521 2.71447 17.7145C3.65215 16.7768 4.92392 16.25 6.25 16.25H11.25M12.5 21.25L15 23.75L20 18.75M3.75 6.25C3.75 7.57608 4.27678 8.84785 5.21447 9.78553C6.15215 10.7232 7.42392 11.25 8.75 11.25C10.0761 11.25 11.3479 10.7232 12.2855 9.78553C13.2232 8.84785 13.75 7.57608 13.75 6.25C13.75 4.92392 13.2232 3.65215 12.2855 2.71447C11.3479 1.77678 10.0761 1.25 8.75 1.25C7.42392 1.25 6.15215 1.77678 5.21447 2.71447C4.27678 3.65215 3.75 4.92392 3.75 6.25Z" stroke="#004FAF" stroke-width="2.5" stroke-linecap="round" stroke-linejoin="round"/>
</svg>
