<svg width="40" height="40" viewBox="0 0 40 40" fill="none" xmlns="http://www.w3.org/2000/svg">
<path d="M34.5527 19.5124H14.4633M7.37225 19.5124H4.47144M7.37225 19.5124C7.37225 18.5723 7.74571 17.6707 8.41047 17.0059C9.07524 16.3412 9.97685 15.9677 10.917 15.9677C11.8571 15.9677 12.7587 16.3412 13.4235 17.0059C14.0882 17.6707 14.4617 18.5723 14.4617 19.5124C14.4617 20.4525 14.0882 21.3541 13.4235 22.0189C12.7587 22.6837 11.8571 23.0571 10.917 23.0571C9.97685 23.0571 9.07524 22.6837 8.41047 22.0189C7.74571 21.3541 7.37225 20.4525 7.37225 19.5124ZM34.5527 30.2555H25.2064M25.2064 30.2555C25.2064 31.1958 24.832 32.0985 24.1671 32.7634C23.5022 33.4283 22.6004 33.8018 21.6601 33.8018C20.7199 33.8018 19.8183 33.4268 19.1536 32.762C18.4888 32.0972 18.1153 31.1956 18.1153 30.2555M25.2064 30.2555C25.2064 29.3152 24.832 28.4142 24.1671 27.7492C23.5022 27.0843 22.6004 26.7108 21.6601 26.7108C20.7199 26.7108 19.8183 27.0843 19.1536 27.749C18.4888 28.4138 18.1153 29.3154 18.1153 30.2555M18.1153 30.2555H4.47144M34.5527 8.76933H29.504M22.4129 8.76933H4.47144M22.4129 8.76933C22.4129 7.82921 22.7864 6.9276 23.4511 6.26283C24.1159 5.59807 25.0175 5.22461 25.9576 5.22461C26.4231 5.22461 26.8841 5.3163 27.3141 5.49443C27.7442 5.67257 28.135 5.93368 28.4641 6.26283C28.7933 6.59199 29.0544 6.98276 29.2325 7.41282C29.4106 7.84289 29.5023 8.30383 29.5023 8.76933C29.5023 9.23482 29.4106 9.69576 29.2325 10.1258C29.0544 10.5559 28.7933 10.9467 28.4641 11.2758C28.135 11.605 27.7442 11.8661 27.3141 12.0442C26.8841 12.2224 26.4231 12.314 25.9576 12.314C25.0175 12.314 24.1159 11.9406 23.4511 11.2758C22.7864 10.6111 22.4129 9.70944 22.4129 8.76933Z" stroke="white" stroke-width="1.5" stroke-miterlimit="10" stroke-linecap="round"/>
</svg>
