<svg width="27" height="27" viewBox="0 0 27 27" fill="none" xmlns="http://www.w3.org/2000/svg">
<path d="M16 13.3333H18V17.0933L21.2533 18.9733L20.2533 20.7067L16 18.2533V13.3333ZM2.66667 0H21.3333C22.0406 0 22.7189 0.280951 23.219 0.781048C23.719 1.28115 24 1.95942 24 2.66667V10.8C25.6533 12.48 26.6667 14.7867 26.6667 17.3333C26.6667 19.8087 25.6833 22.1827 23.933 23.933C22.1827 25.6833 19.8087 26.6667 17.3333 26.6667C14.7867 26.6667 12.48 25.6533 10.8 24H2.66667C1.95942 24 1.28115 23.719 0.781048 23.219C0.280951 22.7189 0 22.0406 0 21.3333V2.66667C0 1.95942 0.280951 1.28115 0.781048 0.781048C1.28115 0.280951 1.95942 0 2.66667 0ZM2.66667 17.3333V21.3333H8.89333C8.32 20.12 8 18.76 8 17.3333H2.66667ZM2.66667 8H10.6667V4H2.66667V8ZM21.3333 8V4H13.3333V8H21.3333ZM2.66667 14.6667H8.38667C8.84 13.1333 9.68 11.76 10.8 10.6667H2.66667V14.6667ZM17.3333 10.8667C15.6183 10.8667 13.9734 11.548 12.7607 12.7607C11.548 13.9734 10.8667 15.6183 10.8667 17.3333C10.8667 20.9067 13.76 23.8 17.3333 23.8C18.1825 23.8 19.0234 23.6327 19.808 23.3078C20.5926 22.9828 21.3055 22.5064 21.906 21.906C22.5064 21.3055 22.9828 20.5926 23.3078 19.808C23.6327 19.0234 23.8 18.1825 23.8 17.3333C23.8 13.76 20.9067 10.8667 17.3333 10.8667Z" fill="#054A91"/>
</svg>
