<svg width="25" height="25" viewBox="0 0 25 25" fill="none" xmlns="http://www.w3.org/2000/svg">
<path d="M0 12.032C0 9.856 0.544 7.84 1.62133 5.99467C2.69867 4.14933 4.16 2.688 6.00533 1.61067C7.85067 0.533333 9.856 0 12.0213 0C13.6427 0 15.2 0.32 16.6827 0.949333C18.1653 1.57867 19.4347 2.44267 20.512 3.50933C21.5893 4.576 22.4427 5.856 23.072 7.34933C23.7013 8.84267 24.0213 10.3893 24.0213 12.032C24.0213 13.6533 23.7013 15.2107 23.072 16.6933C22.4427 18.176 21.5787 19.456 20.512 20.5227C19.4453 21.5893 18.1653 22.4427 16.6827 23.072C15.2 23.7013 13.6533 24.0213 12.0213 24.0213C10.3893 24.0213 8.82133 23.7013 7.33867 23.072C5.856 22.4427 4.576 21.5787 3.49867 20.512C2.42133 19.4453 1.57867 18.1653 0.938666 16.6933C0.298666 15.2213 0 13.664 0 12.032ZM2.64533 12.032C2.64533 14.56 3.56267 16.7573 5.408 18.624C7.25333 20.4693 9.45067 21.3867 12.0213 21.3867C13.7067 21.3867 15.2747 20.9707 16.704 20.128C18.1333 19.2853 19.2853 18.1547 20.128 16.7147C20.9707 15.2747 21.3973 13.7173 21.3973 12.032C21.3973 10.3467 20.9707 8.77867 20.128 7.33867C19.2853 5.89867 18.144 4.75733 16.704 3.91467C15.264 3.072 13.7067 2.656 12.0213 2.656C10.336 2.656 8.768 3.072 7.33867 3.91467C5.90933 4.75733 4.75733 5.89867 3.904 7.33867C3.05067 8.77867 2.64533 10.3467 2.64533 12.032ZM6.85867 14.2613C6.92267 14.0267 7.06133 13.8453 7.264 13.7173L11.0933 11.488V4.928C11.0933 4.68267 11.1787 4.46933 11.3493 4.29867C11.52 4.128 11.7333 4.04267 11.9787 4.04267C12.224 4.04267 12.4373 4.128 12.608 4.29867C12.7787 4.46933 12.864 4.68267 12.864 4.928V12.0427C12.864 12.2453 12.8 12.416 12.6827 12.576C12.5653 12.736 12.416 12.832 12.2347 12.8853L8.13867 15.264C8.01067 15.3493 7.872 15.392 7.70133 15.392C7.36 15.392 7.104 15.2427 6.93333 14.944C6.82512 14.7334 6.79853 14.4903 6.85867 14.2613Z" fill="white"/>
</svg>
