<svg width="27" height="21" viewBox="0 0 27 21" fill="none" xmlns="http://www.w3.org/2000/svg">
<path d="M13.0337 9C15.2428 9 17.0337 7.20914 17.0337 5C17.0337 2.79086 15.2428 1 13.0337 1C10.8246 1 9.03369 2.79086 9.03369 5C9.03369 7.20914 10.8246 9 13.0337 9Z" stroke="#054A91" stroke-width="2" stroke-linecap="round"/>
<path d="M17.3911 5.00002C17.5649 4.6943 17.7975 4.42598 18.0754 4.21051C18.3533 3.99504 18.6711 3.83667 19.0105 3.74453C19.3499 3.65238 19.7042 3.62828 20.053 3.67361C20.4017 3.71894 20.738 3.83281 21.0426 4.00865C21.3472 4.18449 21.6139 4.41884 21.8276 4.69821C22.0412 4.97757 22.1974 5.29643 22.2873 5.63643C22.3772 5.97643 22.399 6.33085 22.3513 6.67929C22.3037 7.02772 22.1876 7.3633 22.0097 7.66669C21.6536 8.27417 21.0716 8.71613 20.3908 8.89612C19.7101 9.07611 18.9857 8.97952 18.3759 8.62742C17.766 8.27532 17.3202 7.6963 17.1357 7.01673C16.9512 6.33715 17.043 5.61217 17.3911 5.00002ZM4.05772 5.00002C4.23154 4.6943 4.46412 4.42598 4.74206 4.21051C5.02 3.99504 5.33782 3.83667 5.67721 3.74453C6.01661 3.65238 6.37087 3.62828 6.71962 3.67361C7.06837 3.71894 7.4047 3.83281 7.70926 4.00865C8.01383 4.18449 8.2806 4.41884 8.49422 4.69821C8.70784 4.97757 8.8641 5.29643 8.95399 5.63643C9.04388 5.97643 9.06563 6.33085 9.01799 6.67929C8.97034 7.02772 8.85425 7.3633 8.67639 7.66669C8.32026 8.27417 7.7383 8.71613 7.05751 8.89612C6.37672 9.07611 5.65237 8.97952 5.04254 8.62742C4.43271 8.27532 3.98689 7.6963 3.80239 7.01673C3.61789 6.33715 3.70968 5.61217 4.05772 5.00002Z" stroke="#054A91" stroke-width="2"/>
<path d="M19.543 18.3332L18.2364 18.5958L18.4497 19.6665H19.543V18.3332ZM16.7404 13.9478L15.935 12.8852L14.3924 14.0572L16.0377 15.0798L16.7404 13.9478ZM23.5244 16.9998H19.5444L19.543 19.6665H23.5244V16.9998ZM23.4044 17.3172C23.3902 17.2728 23.3879 17.2254 23.3977 17.1798C23.4048 17.1324 23.4246 17.0877 23.455 17.0505C23.4977 16.9972 23.5337 16.9998 23.5244 16.9998V19.6665C25.0524 19.6665 26.555 18.2265 25.9177 16.4265L23.4044 17.3172ZM19.7004 14.3332C21.8897 14.3332 22.9044 15.9078 23.4044 17.3172L25.9177 16.4265C25.2977 14.6785 23.631 11.6665 19.7004 11.6665V14.3332ZM17.5484 15.0092C18.0604 14.6198 18.743 14.3332 19.7004 14.3332V11.6665C18.151 11.6665 16.9044 12.1492 15.935 12.8852L17.5484 15.0092ZM16.0377 15.0798C17.423 15.9412 18.003 17.4425 18.235 18.5958L20.8484 18.0705C20.559 16.6265 19.7497 14.2478 17.4457 12.8145L16.0377 15.0798ZM9.32703 13.9465L10.0297 15.0798L11.675 14.0572L10.1324 12.8852L9.32703 13.9465ZM6.52437 18.3332V19.6665H7.61637L7.83237 18.5958L6.52437 18.3332ZM6.36703 14.3332C7.32437 14.3332 8.00703 14.6198 8.51903 15.0092L10.1324 12.8852C9.16303 12.1492 7.91637 11.6665 6.36703 11.6665V14.3332ZM2.66303 17.3172C3.16303 15.9078 4.1777 14.3332 6.36703 14.3332V11.6665C2.43637 11.6665 0.7697 14.6785 0.1497 16.4265L2.66303 17.3172ZM2.54303 16.9998C2.53503 16.9998 2.5697 16.9972 2.6137 17.0505C2.64363 17.0878 2.66297 17.1325 2.6697 17.1798C2.67952 17.2254 2.67722 17.2728 2.66303 17.3172L0.1497 16.4265C-0.4863 18.2265 1.01637 19.6665 2.54437 19.6665L2.54303 16.9998ZM6.52437 16.9998H2.54303L2.54437 19.6665H6.52437V16.9998ZM7.83103 18.5958C8.06437 17.4425 8.64437 15.9412 10.031 15.0798L8.62037 12.8132C6.31637 14.2465 5.50703 16.6265 5.21637 18.0692L7.83103 18.5958Z" fill="#054A91"/>
<path d="M13.0337 13C17.7964 13 19.1564 16.4013 19.5444 18.3453C19.6897 19.0667 19.1044 19.6667 18.367 19.6667H7.70037C6.96437 19.6667 6.37771 19.0667 6.52304 18.3453C6.91104 16.4 8.27104 13 13.0337 13Z" stroke="#054A91" stroke-width="2" stroke-linecap="round"/>
</svg>
