<svg width="28" height="24" viewBox="0 0 28 24" fill="none" xmlns="http://www.w3.org/2000/svg">
<path d="M10.6667 0C9.25218 0 7.89562 0.561903 6.89543 1.5621C5.89524 2.56229 5.33333 3.91885 5.33333 5.33333C5.33333 6.74782 5.89524 8.10438 6.89543 9.10457C7.89562 10.1048 9.25218 10.6667 10.6667 10.6667C12.0812 10.6667 13.4377 10.1048 14.4379 9.10457C15.4381 8.10438 16 6.74782 16 5.33333C16 3.91885 15.4381 2.56229 14.4379 1.5621C13.4377 0.561903 12.0812 0 10.6667 0ZM20 10.6667C19.9185 10.6651 19.8391 10.6924 19.7757 10.7436C19.7123 10.7948 19.669 10.8667 19.6533 10.9467L19.4 12.7067C19 12.88 18.6133 13.0933 18.2667 13.3333L16.6133 12.6667C16.4667 12.6667 16.2933 12.6667 16.2 12.84L14.8667 15.1467C14.7867 15.2933 14.8133 15.4667 14.9467 15.5733L16.36 16.6667C16.3069 17.1095 16.3069 17.5571 16.36 18L14.9467 19.0933C14.8867 19.1447 14.8462 19.215 14.8316 19.2926C14.8171 19.3702 14.8294 19.4504 14.8667 19.52L16.2 21.8267C16.28 22 16.4533 22 16.6133 22L18.2667 21.3333C18.6133 21.5733 18.9867 21.8 19.4 21.96L19.6533 23.72C19.68 23.88 19.8133 24 20 24H22.6667C22.8133 24 22.96 23.88 22.9867 23.72L23.24 21.96C23.64 21.7867 24 21.5733 24.36 21.3333L26 22C26.1733 22 26.3467 22 26.44 21.8267L27.7733 19.52C27.8106 19.4504 27.8229 19.3702 27.8084 19.2926C27.7938 19.215 27.7533 19.1447 27.6933 19.0933L26.2667 18C26.2933 17.7733 26.32 17.56 26.32 17.3333C26.32 17.1067 26.3067 16.8933 26.2667 16.6667L27.68 15.5733C27.7399 15.5219 27.7805 15.4517 27.795 15.3741C27.8096 15.2965 27.7972 15.2163 27.76 15.1467L26.4267 12.84C26.3467 12.6667 26.1733 12.6667 26 12.6667L24.36 13.3333C24 13.0933 23.64 12.8667 23.2267 12.7067L22.9733 10.9467C22.9649 10.8707 22.9292 10.8004 22.8727 10.7489C22.8163 10.6974 22.7431 10.6681 22.6667 10.6667H20ZM10.6667 13.3333C4.77333 13.3333 0 15.72 0 18.6667V21.3333H12.9067C12.3116 20.0837 12.0019 18.7174 12 17.3333C12.0027 15.9937 12.2937 14.6704 12.8533 13.4533C12.1467 13.3733 11.4133 13.3333 10.6667 13.3333ZM21.3333 15.3333C22.44 15.3333 23.3333 16.2267 23.3333 17.3333C23.3333 18.44 22.44 19.3333 21.3333 19.3333C20.2133 19.3333 19.3333 18.44 19.3333 17.3333C19.3333 16.2267 20.2267 15.3333 21.3333 15.3333Z" fill="#054A91"/>
</svg>
