<svg width="34" height="27" viewBox="0 0 34 27" fill="none" xmlns="http://www.w3.org/2000/svg">
<path d="M11.8333 1.47842C13.3692 0.990448 14.9718 0.744724 16.5833 0.750086C23.2048 0.750086 27.711 4.70842 30.3979 8.19809C31.7437 9.94925 32.4167 10.8217 32.4167 13.4168C32.4167 16.0134 31.7437 16.8858 30.3979 18.6354C27.711 22.1251 23.2048 26.0834 16.5833 26.0834C9.96183 26.0834 5.45567 22.1251 2.76875 18.6354C1.42292 16.8874 0.75 16.0118 0.75 13.4168C0.75 10.8201 1.42292 9.94767 2.76875 8.19809C3.58971 7.12589 4.50367 6.12822 5.5 5.21667" stroke="black" stroke-width="1.5" stroke-linecap="round"/>
<path d="M21.3335 13.4167C21.3335 14.6765 20.8331 15.8847 19.9423 16.7755C19.0515 17.6663 17.8433 18.1667 16.5835 18.1667C15.3237 18.1667 14.1155 17.6663 13.2247 16.7755C12.3339 15.8847 11.8335 14.6765 11.8335 13.4167C11.8335 12.157 12.3339 10.9488 13.2247 10.058C14.1155 9.16719 15.3237 8.66675 16.5835 8.66675C17.8433 8.66675 19.0515 9.16719 19.9423 10.058C20.8331 10.9488 21.3335 12.157 21.3335 13.4167Z" stroke="black" stroke-width="1.5"/>
</svg>
