<svg width="50" height="50" viewBox="0 0 50 50" fill="none" xmlns="http://www.w3.org/2000/svg">
<path d="M25.0002 35.4167C23.8951 35.4167 22.8353 34.9777 22.0539 34.1963C21.2725 33.4149 20.8335 32.3551 20.8335 31.25C20.8335 28.9375 22.6877 27.0834 25.0002 27.0834C26.1052 27.0834 27.165 27.5224 27.9464 28.3038C28.7278 29.0852 29.1668 30.145 29.1668 31.25C29.1668 32.3551 28.7278 33.4149 27.9464 34.1963C27.165 34.9777 26.1052 35.4167 25.0002 35.4167ZM37.5002 41.6667V20.8334H12.5002V41.6667H37.5002ZM37.5002 16.6667C38.6052 16.6667 39.665 17.1057 40.4464 17.8871C41.2278 18.6685 41.6668 19.7283 41.6668 20.8334V41.6667C41.6668 42.7718 41.2278 43.8316 40.4464 44.613C39.665 45.3944 38.6052 45.8334 37.5002 45.8334H12.5002C11.3951 45.8334 10.3353 45.3944 9.55388 44.613C8.77248 43.8316 8.3335 42.7718 8.3335 41.6667V20.8334C8.3335 18.5209 10.1877 16.6667 12.5002 16.6667H14.5835V12.5C14.5835 9.73737 15.681 7.08785 17.6345 5.13435C19.588 3.18084 22.2375 2.08337 25.0002 2.08337C26.3681 2.08337 27.7226 2.35281 28.9864 2.8763C30.2503 3.39978 31.3986 4.16707 32.3659 5.13435C33.3331 6.10162 34.1004 7.24995 34.6239 8.51375C35.1474 9.77756 35.4168 11.1321 35.4168 12.5V16.6667H37.5002ZM25.0002 6.25004C23.3426 6.25004 21.7528 6.90852 20.5807 8.08062C19.4086 9.25273 18.7502 10.8424 18.7502 12.5V16.6667H31.2502V12.5C31.2502 10.8424 30.5917 9.25273 29.4196 8.08062C28.2475 6.90852 26.6578 6.25004 25.0002 6.25004Z" fill="black"/>
</svg>
