<svg width="50" height="50" viewBox="0 0 50 50" fill="none" xmlns="http://www.w3.org/2000/svg">
<path d="M12.5002 41.6666V20.8333H37.5002V27.2708C38.1877 27.1666 38.8752 27.0833 39.5835 27.0833C40.2918 27.0833 40.9793 27.1666 41.6668 27.2708V20.8333C41.6668 19.7282 41.2278 18.6684 40.4464 17.887C39.665 17.1056 38.6052 16.6666 37.5002 16.6666H35.4168V12.4999C35.4168 6.74992 30.7502 2.08325 25.0002 2.08325C19.2502 2.08325 14.5835 6.74992 14.5835 12.4999V16.6666H12.5002C10.1877 16.6666 8.3335 18.5208 8.3335 20.8333V41.6666C8.3335 42.7717 8.77248 43.8315 9.55388 44.6129C10.3353 45.3943 11.3951 45.8333 12.5002 45.8333H28.771C28.0418 44.5624 27.5418 43.1666 27.271 41.6666H12.5002ZM18.7502 12.4999C18.7502 9.04158 21.5418 6.24992 25.0002 6.24992C28.4585 6.24992 31.2502 9.04158 31.2502 12.4999V16.6666H18.7502V12.4999ZM29.1668 31.2499C29.1668 33.5624 27.3127 35.4166 25.0002 35.4166C23.8951 35.4166 22.8353 34.9776 22.0539 34.1962C21.2725 33.4148 20.8335 32.355 20.8335 31.2499C20.8335 28.9374 22.6877 27.0833 25.0002 27.0833C26.1052 27.0833 27.165 27.5222 27.9464 28.3036C28.7278 29.085 29.1668 30.1448 29.1668 31.2499ZM47.9168 37.4999V41.6666H41.6668V47.9166H37.5002V41.6666H31.2502V37.4999H37.5002V31.2499H41.6668V37.4999H47.9168Z" fill="black"/>
</svg>
