<svg width="35" height="38" viewBox="0 0 35 38" fill="none" xmlns="http://www.w3.org/2000/svg">
<path d="M17.5039 0C13.8682 0 10.3815 1.44427 7.81065 4.01508C5.23984 6.58589 3.79557 10.0727 3.79557 13.7083V20.6173C3.79585 20.9211 3.72546 21.2208 3.58994 21.4927L0.227485 28.2157C0.0632331 28.5441 -0.0143255 28.9091 0.00217627 29.276C0.018678 29.6428 0.128692 29.9994 0.32177 30.3118C0.514847 30.6241 0.784577 30.882 1.10534 31.0608C1.42611 31.2396 1.78725 31.3334 2.15449 31.3333H32.8533C33.2206 31.3334 33.5817 31.2396 33.9025 31.0608C34.2232 30.882 34.493 30.6241 34.686 30.3118C34.8791 29.9994 34.9891 29.6428 35.0056 29.276C35.0221 28.9091 34.9446 28.5441 34.7803 28.2157L31.4198 21.4927C31.2836 21.221 31.2126 20.9213 31.2122 20.6173V13.7083C31.2122 10.0727 29.768 6.58589 27.1972 4.01508C24.6263 1.44427 21.1396 0 17.5039 0ZM17.5039 37.2083C16.2885 37.209 15.1027 36.8326 14.1101 36.1311C13.1176 35.4297 12.367 34.4376 11.9618 33.2917H23.046C22.6408 34.4376 21.8902 35.4297 20.8977 36.1311C19.9051 36.8326 18.7193 37.209 17.5039 37.2083Z" fill="white"/>
</svg>
