<svg width="28" height="32" viewBox="0 0 28 32" fill="none" xmlns="http://www.w3.org/2000/svg">
<path d="M14 2.44142e-05C13.1687 2.44142e-05 12.5 0.668774 12.5 1.50002V2.10627C7.4125 2.83127 3.5 7.21252 3.5 12.5V13.4063C3.5 15.7625 2.875 18.075 1.6875 20.1125L0.31875 22.45C0.1125 22.8125 0 23.2188 0 23.6375C0 24.9438 1.05625 26 2.3625 26H25.6375C26.9438 26 28 24.9438 28 23.6375C28 23.2188 27.8875 22.8063 27.6812 22.45L26.3125 20.1063C25.125 18.0688 24.5 15.7563 24.5 13.4V12.4938C24.5 7.20627 20.5875 2.82502 15.5 2.10002V1.49377C15.5 0.662524 14.8313 -0.00622559 14 -0.00622559V2.44142e-05ZM24.525 23H3.46875L4.275 21.6188C5.73125 19.125 6.5 16.2875 6.5 13.4063V12.5C6.5 8.35627 9.85625 5.00002 14 5.00002C18.1437 5.00002 21.5 8.35627 21.5 12.5V13.4063C21.5 16.2938 22.2687 19.125 23.7188 21.6188L24.525 23ZM9.75625 29C10.375 30.75 12.0437 32 14 32C15.9563 32 17.625 30.75 18.2437 29H9.75625Z" fill="#054A91"/>
</svg>
