<svg width="40" height="46" viewBox="0 0 40 46" fill="none" xmlns="http://www.w3.org/2000/svg">
<path d="M4.16667 39.5833V18.75H29.1667V25.1875C29.8542 25.0833 30.5417 25 31.25 25C31.9583 25 32.6458 25.0833 33.3333 25.1875V18.75C33.3333 17.6449 32.8943 16.5851 32.1129 15.8037C31.3315 15.0223 30.2717 14.5833 29.1667 14.5833H27.0833V10.4167C27.0833 4.66667 22.4167 0 16.6667 0C10.9167 0 6.25 4.66667 6.25 10.4167V14.5833H4.16667C1.85417 14.5833 0 16.4375 0 18.75V39.5833C0 40.6884 0.438987 41.7482 1.22039 42.5296C2.00179 43.311 3.0616 43.75 4.16667 43.75H20.4375C19.7083 42.4792 19.2083 41.0833 18.9375 39.5833H4.16667ZM10.4167 10.4167C10.4167 6.95833 13.2083 4.16667 16.6667 4.16667C20.125 4.16667 22.9167 6.95833 22.9167 10.4167V14.5833H10.4167V10.4167ZM20.8333 29.1667C20.8333 31.4792 18.9792 33.3333 16.6667 33.3333C15.5616 33.3333 14.5018 32.8943 13.7204 32.1129C12.939 31.3315 12.5 30.2717 12.5 29.1667C12.5 26.8542 14.3542 25 16.6667 25C17.7717 25 18.8315 25.439 19.6129 26.2204C20.3943 27.0018 20.8333 28.0616 20.8333 29.1667ZM39.5833 35.4167V39.5833H33.3333V45.8333H29.1667V39.5833H22.9167V35.4167H29.1667V29.1667H33.3333V35.4167H39.5833Z" fill="black"/>
</svg>
