<svg width="28" height="28" viewBox="0 0 28 28" fill="none" xmlns="http://www.w3.org/2000/svg">
<path d="M25.1016 15.4472H15.4472V25.1016C15.4472 25.6137 15.2437 26.1049 14.8816 26.467C14.5195 26.8291 14.0284 27.0325 13.5163 27.0325C13.0042 27.0325 12.513 26.8291 12.1509 26.467C11.7888 26.1049 11.5854 25.6137 11.5854 25.1016V15.4472H1.93089C1.41879 15.4472 0.927659 15.2437 0.565546 14.8816C0.203433 14.5195 0 14.0284 0 13.5163C0 13.0042 0.203433 12.513 0.565546 12.1509C0.927659 11.7888 1.41879 11.5854 1.93089 11.5854H11.5854V1.93089C11.5854 1.41879 11.7888 0.927658 12.1509 0.565545C12.513 0.203432 13.0042 0 13.5163 0C14.0284 0 14.5195 0.203432 14.8816 0.565545C15.2437 0.927658 15.4472 1.41879 15.4472 1.93089V11.5854H25.1016C25.6137 11.5854 26.1049 11.7888 26.467 12.1509C26.8291 12.513 27.0325 13.0042 27.0325 13.5163C27.0325 14.0284 26.8291 14.5195 26.467 14.8816C26.1049 15.2437 25.6137 15.4472 25.1016 15.4472Z" fill="white"/>
</svg>
