<svg width="30" height="30" viewBox="0 0 30 30" fill="none" xmlns="http://www.w3.org/2000/svg">
<path fill-rule="evenodd" clip-rule="evenodd" d="M20 10.6667C20 12.0812 19.4381 13.4377 18.4379 14.4379C17.4377 15.4381 16.0811 16 14.6666 16C13.2522 16 11.8956 15.4381 10.8954 14.4379C9.89522 13.4377 9.33331 12.0812 9.33331 10.6667C9.33331 9.25222 9.89522 7.89566 10.8954 6.89547C11.8956 5.89528 13.2522 5.33337 14.6666 5.33337C16.0811 5.33337 17.4377 5.89528 18.4379 6.89547C19.4381 7.89566 20 9.25222 20 10.6667ZM17.3333 10.6667C17.3333 11.374 17.0524 12.0522 16.5523 12.5523C16.0522 13.0524 15.3739 13.3334 14.6666 13.3334C13.9594 13.3334 13.2811 13.0524 12.781 12.5523C12.2809 12.0522 12 11.374 12 10.6667C12 9.95946 12.2809 9.28119 12.781 8.78109C13.2811 8.28099 13.9594 8.00004 14.6666 8.00004C15.3739 8.00004 16.0522 8.28099 16.5523 8.78109C17.0524 9.28119 17.3333 9.95946 17.3333 10.6667Z" fill="#054A91"/>
<path fill-rule="evenodd" clip-rule="evenodd" d="M14.6667 0C6.56667 0 0 6.56667 0 14.6667C0 22.7667 6.56667 29.3333 14.6667 29.3333C22.7667 29.3333 29.3333 22.7667 29.3333 14.6667C29.3333 6.56667 22.7667 0 14.6667 0ZM2.66667 14.6667C2.66667 17.4533 3.61733 20.0187 5.21067 22.056C6.32992 20.5868 7.77354 19.3962 9.42885 18.577C11.0842 17.7578 12.9064 17.3321 14.7533 17.3333C16.5765 17.3312 18.3761 17.7455 20.0148 18.5445C21.6536 19.3435 23.0882 20.5063 24.2093 21.944C25.3646 20.4288 26.1424 18.6603 26.4785 16.7848C26.8146 14.9093 26.6992 12.9807 26.142 11.1586C25.5847 9.33658 24.6016 7.6734 23.274 6.30672C21.9463 4.94004 20.3123 3.90915 18.5072 3.29934C16.702 2.68954 14.7776 2.51836 12.8931 2.79996C11.0087 3.08157 9.21839 3.80786 7.67036 4.91874C6.12233 6.02962 4.86108 7.49316 3.99097 9.18826C3.12086 10.8834 2.66691 12.7613 2.66667 14.6667ZM14.6667 26.6667C11.9119 26.6711 9.24019 25.7234 7.104 23.984C7.96375 22.7528 9.10826 21.7476 10.4401 21.0539C11.7719 20.3603 13.2517 19.9987 14.7533 20C16.2362 19.9987 17.698 20.3513 19.0173 21.0284C20.3366 21.7056 21.4752 22.6877 22.3387 23.8933C20.186 25.6893 17.4702 26.6711 14.6667 26.6667Z" fill="#054A91"/>
</svg>
