<svg width="31" height="34" viewBox="0 0 31 34" fill="none" xmlns="http://www.w3.org/2000/svg">
<path d="M11.1992 24.9167C8.06916 24.9167 5.42041 23.7104 3.25293 21.298C1.08546 18.8856 0.00114955 15.939 9.11614e-07 12.4583C-0.00114772 8.97767 1.08316 6.03111 3.25293 3.61867C5.4227 1.20622 8.07145 0 11.1992 0C14.3269 0 16.9762 1.20622 19.1472 3.61867C21.3181 6.03111 22.4018 8.97767 22.3984 12.4583C22.3984 13.8639 22.1974 15.1896 21.7953 16.4354C21.3933 17.6812 20.8477 18.7833 20.1585 19.7417L29.8071 30.475C30.1229 30.8264 30.2809 31.2736 30.2809 31.8167C30.2809 32.3597 30.1229 32.8069 29.8071 33.1583C29.4912 33.5097 29.0892 33.6854 28.601 33.6854C28.1128 33.6854 27.7108 33.5097 27.3949 33.1583L17.7464 22.425C16.8849 23.1917 15.8942 23.7986 14.7743 24.2458C13.6544 24.6931 12.4627 24.9167 11.1992 24.9167ZM11.1992 21.0833C13.3529 21.0833 15.1838 20.2451 16.692 18.5687C18.2001 16.8922 18.9536 14.8554 18.9525 12.4583C18.9513 10.0612 18.1978 8.02508 16.692 6.34992C15.1861 4.67475 13.3552 3.83589 11.1992 3.83333C9.0432 3.83078 7.21285 4.66964 5.70814 6.34992C4.20343 8.03019 3.44935 10.0663 3.4459 12.4583C3.44246 14.8503 4.19654 16.8871 5.70814 18.5687C7.21974 20.2502 9.05009 21.0884 11.1992 21.0833Z" fill="#747474"/>
</svg>
