<svg width="27" height="27" viewBox="0 0 27 27" fill="none" xmlns="http://www.w3.org/2000/svg">
<path d="M24.0579 14.2151C23.8442 13.9718 23.7263 13.659 23.7263 13.3351C23.7263 13.0113 23.8442 12.6985 24.0579 12.4551L25.7646 10.5351C25.9527 10.3254 26.0694 10.0614 26.0982 9.78116C26.1269 9.50089 26.0662 9.21873 25.9246 8.97515L23.2579 4.36181C23.1178 4.11851 22.9044 3.92565 22.6483 3.81073C22.3921 3.69581 22.1062 3.66469 21.8313 3.72181L19.3246 4.22848C19.0056 4.29438 18.6736 4.24127 18.3911 4.07915C18.1086 3.91703 17.8953 3.65712 17.7913 3.34848L16.9779 0.90848C16.8885 0.643652 16.7181 0.413633 16.4908 0.250936C16.2635 0.0882386 15.9908 0.00109173 15.7113 0.00181328H10.3779C10.0872 -0.0133628 9.79945 0.0670484 9.55869 0.230765C9.31793 0.394482 9.13737 0.632505 9.0446 0.90848L8.29793 3.34848C8.19394 3.65712 7.98056 3.91703 7.69808 4.07915C7.41561 4.24127 7.08356 4.29438 6.7646 4.22848L4.19127 3.72181C3.93067 3.68499 3.665 3.72611 3.42773 3.84C3.19046 3.95389 2.9922 4.13545 2.85793 4.36181L0.191268 8.97515C0.046148 9.21601 -0.0191026 9.49659 0.00484473 9.77678C0.028792 10.057 0.140711 10.3224 0.324601 10.5351L2.01793 12.4551C2.23169 12.6985 2.34958 13.0113 2.34958 13.3351C2.34958 13.659 2.23169 13.9718 2.01793 14.2151L0.324601 16.1351C0.140711 16.3479 0.028792 16.6133 0.00484473 16.8935C-0.0191026 17.1737 0.046148 17.4543 0.191268 17.6951L2.85793 22.3085C2.99806 22.5518 3.21143 22.7446 3.4676 22.8596C3.72378 22.9745 4.0097 23.0056 4.2846 22.9485L6.79127 22.4418C7.11022 22.3759 7.44227 22.429 7.72475 22.5911C8.00723 22.7533 8.2206 23.0132 8.3246 23.3218L9.13793 25.7618C9.23071 26.0378 9.41126 26.2758 9.65202 26.4395C9.89278 26.6032 10.1805 26.6837 10.4713 26.6685H15.8046C16.0841 26.6692 16.3568 26.5821 16.5841 26.4194C16.8114 26.2567 16.9818 26.0266 17.0713 25.7618L17.8846 23.3218C17.9886 23.0132 18.202 22.7533 18.4844 22.5911C18.7669 22.429 19.099 22.3759 19.4179 22.4418L21.9246 22.9485C22.1995 23.0056 22.4854 22.9745 22.7416 22.8596C22.9978 22.7446 23.2111 22.5518 23.3513 22.3085L26.0179 17.6951C26.1595 17.4516 26.2203 17.1694 26.1915 16.8891C26.1628 16.6089 26.046 16.3449 25.8579 16.1351L24.0579 14.2151ZM22.0713 16.0018L23.1379 17.2018L21.4313 20.1618L19.8579 19.8418C18.8976 19.6455 17.8987 19.8086 17.0507 20.3002C16.2028 20.7918 15.5648 21.5776 15.2579 22.5085L14.7513 24.0018H11.3379L10.8579 22.4818C10.5511 21.5509 9.91311 20.7651 9.06514 20.2736C8.21717 19.782 7.21823 19.6189 6.25793 19.8151L4.6846 20.1351L2.95127 17.1885L4.01793 15.9885C4.67387 15.2551 5.03651 14.3057 5.03651 13.3218C5.03651 12.3379 4.67387 11.3885 4.01793 10.6551L2.95127 9.45515L4.65793 6.52181L6.23127 6.84181C7.19156 7.03811 8.1905 6.87499 9.03847 6.38341C9.88644 5.89184 10.5244 5.10603 10.8313 4.17515L11.3379 2.66848H14.7513L15.2579 4.18848C15.5648 5.11936 16.2028 5.90517 17.0507 6.39674C17.8987 6.88832 18.8976 7.05144 19.8579 6.85515L21.4313 6.53515L23.1379 9.49515L22.0713 10.6951C21.4227 11.4268 21.0646 12.3707 21.0646 13.3485C21.0646 14.3262 21.4227 15.2701 22.0713 16.0018ZM13.0446 8.00181C11.9898 8.00181 10.9586 8.31461 10.0816 8.90064C9.2045 9.48668 8.52091 10.3196 8.11724 11.2942C7.71358 12.2687 7.60796 13.3411 7.81375 14.3756C8.01953 15.4102 8.52748 16.3605 9.27336 17.1064C10.0192 17.8523 10.9696 18.3602 12.0041 18.566C13.0387 18.7718 14.111 18.6662 15.0856 18.2625C16.0601 17.8588 16.8931 17.1752 17.4791 16.2982C18.0651 15.4211 18.3779 14.39 18.3779 13.3351C18.3779 11.9207 17.816 10.5641 16.8158 9.56391C15.8156 8.56372 14.4591 8.00181 13.0446 8.00181ZM13.0446 16.0018C12.5172 16.0018 12.0016 15.8454 11.5631 15.5524C11.1245 15.2594 10.7828 14.8429 10.5809 14.3556C10.3791 13.8684 10.3263 13.3322 10.4292 12.8149C10.5321 12.2976 10.786 11.8225 11.159 11.4495C11.5319 11.0766 12.0071 10.8226 12.5244 10.7197C13.0416 10.6168 13.5778 10.6696 14.0651 10.8715C14.5524 11.0733 14.9688 11.4151 15.2619 11.8536C15.5549 12.2922 15.7113 12.8077 15.7113 13.3351C15.7113 14.0424 15.4303 14.7207 14.9302 15.2208C14.4301 15.7209 13.7518 16.0018 13.0446 16.0018Z" fill="#054A91"/>
</svg>
