<svg width="29" height="29" viewBox="0 0 29 29" fill="none" xmlns="http://www.w3.org/2000/svg">
<path d="M0.786863 0.786863C1.29084 0.283035 1.9743 0 2.68693 0C3.39955 0 4.08301 0.283035 4.58699 0.786863L14.09 10.2899L23.593 0.786863C24.0999 0.297314 24.7787 0.0264288 25.4834 0.032552C26.188 0.0386753 26.8621 0.321317 27.3604 0.819601C27.8587 1.31789 28.1413 1.99194 28.1474 2.6966C28.1535 3.40125 27.8827 4.08012 27.3931 4.58699L17.8901 14.09L27.3931 23.593C27.8827 24.0999 28.1535 24.7787 28.1474 25.4834C28.1413 26.188 27.8587 26.8621 27.3604 27.3604C26.8621 27.8587 26.188 28.1413 25.4834 28.1474C24.7787 28.1535 24.0999 27.8827 23.593 27.3931L14.09 17.8901L4.58699 27.3931C4.08012 27.8827 3.40125 28.1535 2.6966 28.1474C1.99194 28.1413 1.31789 27.8587 0.819601 27.3604C0.321317 26.8621 0.0386753 26.188 0.032552 25.4834C0.0264288 24.7787 0.297314 24.0999 0.786863 23.593L10.2899 14.09L0.786863 4.58699C0.283035 4.08301 0 3.39955 0 2.68693C0 1.9743 0.283035 1.29084 0.786863 0.786863Z" fill="white"/>
</svg>
